<svg width="181" height="144" viewBox="0 0 181 144" fill="none" xmlns="http://www.w3.org/2000/svg">
    <circle cx="124.299" cy="60.2989" r="56.2989" fill="#F6F5FF"/>
    <circle cx="11.6172" cy="24.6172" r="11.6172" fill="#F6F5FF"/>
    <path d="M97.4236 47.9961V23.9965C97.4236 13.5494 87.9391 5 76.347 5C64.7549 5 55.2705 13.5494 55.2705 23.9965V47.9961" stroke="#FFCBC1" stroke-width="8.43061" stroke-miterlimit="10" stroke-linecap="round" stroke-linejoin="round"/>
    <g filter="url(#filter0_d)">
        <path d="M76.237 129.273C102.085 129.273 123.039 108.319 123.039 82.4704C123.039 56.6221 102.085 35.668 76.237 35.668C50.3887 35.668 29.4346 56.6221 29.4346 82.4704C29.4346 108.319 50.3887 129.273 76.237 129.273Z" fill="white"/>
    </g>
    <path opacity="0.05" d="M37.6916 120.874C16.7695 99.9519 16.7695 66.0276 37.6916 45.1055L113.46 120.874C92.538 141.796 58.6137 141.796 37.6916 120.874Z" fill="#FF512F"/>
    <g filter="url(#filter1_d)">
        <path d="M76.0912 95.8999C72.4096 95.8999 69.3975 92.8877 69.3975 89.2062V75.8187C69.3975 72.1372 72.4096 69.125 76.0912 69.125C79.7727 69.125 82.7849 72.1372 82.7849 75.8187V89.2062C82.7849 92.8877 79.7727 95.8999 76.0912 95.8999Z" fill="#FF512F"/>
    </g>
    <defs>
        <filter id="filter0_d" x="19.2295" y="28.0142" width="115.716" height="115.716" filterUnits="userSpaceOnUse" color-interpolation-filters="sRGB">
            <feFlood flood-opacity="0" result="BackgroundImageFix"/>
            <feColorMatrix in="SourceAlpha" type="matrix" values="0 0 0 0 0 0 0 0 0 0 0 0 0 0 0 0 0 0 127 0" result="hardAlpha"/>
            <feOffset dx="0.85042" dy="3.40168"/>
            <feGaussianBlur stdDeviation="5.52773"/>
            <feColorMatrix type="matrix" values="0 0 0 0 1 0 0 0 0 0.317647 0 0 0 0 0.184314 0 0 0 0.26 0"/>
            <feBlend mode="normal" in2="BackgroundImageFix" result="effect1_dropShadow"/>
            <feBlend mode="normal" in="SourceGraphic" in2="effect1_dropShadow" result="shape"/>
        </filter>
        <filter id="filter1_d" x="69.3975" y="69.125" width="29.5454" height="45.4842" filterUnits="userSpaceOnUse" color-interpolation-filters="sRGB">
            <feFlood flood-opacity="0" result="BackgroundImageFix"/>
            <feColorMatrix in="SourceAlpha" type="matrix" values="0 0 0 0 0 0 0 0 0 0 0 0 0 0 0 0 0 0 127 0" result="hardAlpha"/>
            <feOffset dx="8.5042" dy="11.0555"/>
            <feGaussianBlur stdDeviation="3.82689"/>
            <feColorMatrix type="matrix" values="0 0 0 0 1 0 0 0 0 0.317647 0 0 0 0 0.184314 0 0 0 0.22 0"/>
            <feBlend mode="normal" in2="BackgroundImageFix" result="effect1_dropShadow"/>
            <feBlend mode="normal" in="SourceGraphic" in2="effect1_dropShadow" result="shape"/>
        </filter>
    </defs>
</svg>
